<svg width="917" height="266" viewBox="0 0 917 266" fill="none" xmlns="http://www.w3.org/2000/svg">
<path d="M86.9645 45.3667C61.9063 50.8767 40.0631 66.1153 26.2404 87.7303C12.4176 109.345 7.74754 135.566 13.2575 160.624C19.1648 187.016 35.046 210.102 57.5805 225.056L86.523 243.565M86.523 243.565L34.0328 255.107M86.523 243.565L74.9811 191.075M830.098 239.382C855.157 233.872 877 218.634 890.823 197.019C904.645 175.404 909.315 149.183 903.806 124.125C897.898 97.7329 882.017 74.6466 859.483 59.6928L830.54 41.1841M830.54 41.1841L842.082 93.6743M830.54 41.1841L883.03 29.6423" stroke="#CC2936" stroke-width="21.4977" stroke-linecap="round" stroke-linejoin="round"/>
<path d="M231.2 93.212C243.032 93.212 252.544 96.866 259.736 104.174C267.044 111.366 270.698 121.458 270.698 134.45V191H246.338V137.756C246.338 130.216 244.424 124.474 240.596 120.53C236.768 116.47 231.548 114.44 224.936 114.44C218.324 114.44 213.046 116.47 209.102 120.53C205.274 124.474 203.36 130.216 203.36 137.756V191H179V137.756C179 130.216 177.086 124.474 173.258 120.53C169.43 116.47 164.21 114.44 157.598 114.44C150.87 114.44 145.534 116.47 141.59 120.53C137.762 124.474 135.848 130.216 135.848 137.756V191H111.488V94.604H135.848V106.262C138.98 102.202 142.982 99.012 147.854 96.692C152.842 94.372 158.294 93.212 164.21 93.212C171.75 93.212 178.478 94.836 184.394 98.084C190.31 101.216 194.892 105.74 198.14 111.656C201.272 106.088 205.796 101.622 211.712 98.258C217.744 94.894 224.24 93.212 231.2 93.212ZM326.179 192.566C316.899 192.566 308.547 190.536 301.123 186.476C293.699 182.3 287.841 176.442 283.549 168.902C279.373 161.362 277.285 152.662 277.285 142.802C277.285 132.942 279.431 124.242 283.723 116.702C288.131 109.162 294.105 103.362 301.645 99.302C309.185 95.126 317.595 93.038 326.875 93.038C336.155 93.038 344.565 95.126 352.105 99.302C359.645 103.362 365.561 109.162 369.853 116.702C374.261 124.242 376.465 132.942 376.465 142.802C376.465 152.662 374.203 161.362 369.679 168.902C365.271 176.442 359.239 182.3 351.583 186.476C344.043 190.536 335.575 192.566 326.179 192.566ZM326.179 171.338C330.587 171.338 334.705 170.294 338.533 168.206C342.477 166.002 345.609 162.754 347.929 158.462C350.249 154.17 351.409 148.95 351.409 142.802C351.409 133.638 348.973 126.62 344.101 121.748C339.345 116.76 333.487 114.266 326.527 114.266C319.567 114.266 313.709 116.76 308.953 121.748C304.313 126.62 301.993 133.638 301.993 142.802C301.993 151.966 304.255 159.042 308.779 164.03C313.419 168.902 319.219 171.338 326.179 171.338ZM377.63 142.454C377.63 132.71 379.544 124.068 383.372 116.528C387.316 108.988 392.652 103.188 399.38 99.128C406.108 95.068 413.59 93.038 421.826 93.038C428.09 93.038 434.064 94.43 439.748 97.214C445.432 99.882 449.956 103.478 453.32 108.002V62.24H478.028V191H453.32V176.732C450.304 181.488 446.07 185.316 440.618 188.216C435.166 191.116 428.844 192.566 421.652 192.566C413.532 192.566 406.108 190.478 399.38 186.302C392.652 182.126 387.316 176.268 383.372 168.728C379.544 161.072 377.63 152.314 377.63 142.454ZM453.494 142.802C453.494 136.886 452.334 131.84 450.014 127.664C447.694 123.372 444.562 120.124 440.618 117.92C436.674 115.6 432.44 114.44 427.916 114.44C423.392 114.44 419.216 115.542 415.388 117.746C411.56 119.95 408.428 123.198 405.992 127.49C403.672 131.666 402.512 136.654 402.512 142.454C402.512 148.254 403.672 153.358 405.992 157.766C408.428 162.058 411.56 165.364 415.388 167.684C419.332 170.004 423.508 171.164 427.916 171.164C432.44 171.164 436.674 170.062 440.618 167.858C444.562 165.538 447.694 162.29 450.014 158.114C452.334 153.822 453.494 148.718 453.494 142.802ZM503.733 83.12C499.441 83.12 495.845 81.786 492.945 79.118C490.161 76.334 488.769 72.912 488.769 68.852C488.769 64.792 490.161 61.428 492.945 58.76C495.845 55.976 499.441 54.584 503.733 54.584C508.025 54.584 511.563 55.976 514.347 58.76C517.247 61.428 518.697 64.792 518.697 68.852C518.697 72.912 517.247 76.334 514.347 79.118C511.563 81.786 508.025 83.12 503.733 83.12ZM515.739 94.604V191H491.379V94.604H515.739ZM573.563 114.614H556.685V191H531.977V114.614H521.015V94.604H531.977V89.732C531.977 77.9 535.341 69.2 542.069 63.632C548.797 58.064 558.947 55.454 572.519 55.802V76.334C566.603 76.218 562.485 77.204 560.165 79.292C557.845 81.38 556.685 85.15 556.685 90.602V94.604H573.563V114.614ZM591.263 83.12C586.971 83.12 583.375 81.786 580.475 79.118C577.691 76.334 576.299 72.912 576.299 68.852C576.299 64.792 577.691 61.428 580.475 58.76C583.375 55.976 586.971 54.584 591.263 54.584C595.555 54.584 599.093 55.976 601.877 58.76C604.777 61.428 606.227 64.792 606.227 68.852C606.227 72.912 604.777 76.334 601.877 79.118C599.093 81.786 595.555 83.12 591.263 83.12ZM603.269 94.604V191H578.909V94.604H603.269ZM610.633 142.802C610.633 132.826 612.663 124.126 616.723 116.702C620.783 109.162 626.409 103.362 633.601 99.302C640.793 95.126 649.029 93.038 658.309 93.038C670.257 93.038 680.117 96.054 687.889 102.086C695.777 108.002 701.055 116.354 703.723 127.142H677.449C676.057 122.966 673.679 119.718 670.315 117.398C667.067 114.962 663.007 113.744 658.135 113.744C651.175 113.744 645.665 116.296 641.605 121.4C637.545 126.388 635.515 133.522 635.515 142.802C635.515 151.966 637.545 159.1 641.605 164.204C645.665 169.192 651.175 171.686 658.135 171.686C667.995 171.686 674.433 167.278 677.449 158.462H703.723C701.055 168.902 695.777 177.196 687.889 183.344C680.001 189.492 670.141 192.566 658.309 192.566C649.029 192.566 640.793 190.536 633.601 186.476C626.409 182.3 620.783 176.5 616.723 169.076C612.663 161.536 610.633 152.778 610.633 142.802ZM704.865 142.454C704.865 132.71 706.779 124.068 710.607 116.528C714.551 108.988 719.829 103.188 726.441 99.128C733.169 95.068 740.651 93.038 748.887 93.038C756.079 93.038 762.343 94.488 767.679 97.388C773.131 100.288 777.481 103.942 780.729 108.35V94.604H805.263V191H780.729V176.906C777.597 181.43 773.247 185.2 767.679 188.216C762.227 191.116 755.905 192.566 748.713 192.566C740.593 192.566 733.169 190.478 726.441 186.302C719.829 182.126 714.551 176.268 710.607 168.728C706.779 161.072 704.865 152.314 704.865 142.454ZM780.729 142.802C780.729 136.886 779.569 131.84 777.249 127.664C774.929 123.372 771.797 120.124 767.853 117.92C763.909 115.6 759.675 114.44 755.151 114.44C750.627 114.44 746.451 115.542 742.623 117.746C738.795 119.95 735.663 123.198 733.227 127.49C730.907 131.666 729.747 136.654 729.747 142.454C729.747 148.254 730.907 153.358 733.227 157.766C735.663 162.058 738.795 165.364 742.623 167.684C746.567 170.004 750.743 171.164 755.151 171.164C759.675 171.164 763.909 170.062 767.853 167.858C771.797 165.538 774.929 162.29 777.249 158.114C779.569 153.822 780.729 148.718 780.729 142.802Z" fill="#262626"/>
</svg>
